<svg width="92" height="25" viewBox="0 0 92 25" fill="none" xmlns="http://www.w3.org/2000/svg">
<path d="M17.0781 24.5469C15.651 24.4531 14.2135 24.3802 12.7656 24.3281C11.3177 24.276 9.86458 24.25 8.40625 24.25C7.16667 24.25 5.92708 24.2708 4.6875 24.3125C3.44792 24.3542 2.19271 24.4323 0.921875 24.5469C1.00521 22.6719 1.06771 20.8125 1.10938 18.9688C1.15104 17.1146 1.17188 15.25 1.17188 13.375C1.17188 11.2812 1.15104 9.19792 1.10938 7.125C1.06771 5.04167 1.00521 2.98438 0.921875 0.953125H7.82812C7.78646 3.42188 7.74479 5.82292 7.70312 8.15625C7.68229 9.15625 7.66667 10.1875 7.65625 11.25C7.64583 12.3125 7.63021 13.3594 7.60938 14.3906C7.59896 15.4219 7.58854 16.4115 7.57812 17.3594C7.57812 18.2969 7.57812 19.1458 7.57812 19.9062L17.0781 19.6406V24.5469ZM33.4062 20.3125C33.4688 19.6875 33.526 19 33.5781 18.25C33.6302 17.5 33.6719 16.7344 33.7031 15.9531C33.7344 15.1719 33.7552 14.4062 33.7656 13.6562C33.7865 12.8958 33.7969 12.2031 33.7969 11.5781C33.7969 10.3802 33.7656 9.13542 33.7031 7.84375C33.6406 6.54167 33.5417 5.29167 33.4062 4.09375C33.25 4.08333 33.0625 4.07292 32.8438 4.0625C32.625 4.05208 32.3958 4.04688 32.1562 4.04688C31.9271 4.03646 31.7031 4.03125 31.4844 4.03125C31.2656 4.03125 31.0781 4.03125 30.9219 4.03125C30.4531 4.03125 29.9531 4.04167 29.4219 4.0625C28.901 4.08333 28.3698 4.11979 27.8281 4.17188C27.2865 4.21354 26.75 4.27083 26.2188 4.34375C25.6979 4.40625 25.2031 4.48438 24.7344 4.57812C24.7344 4.80729 24.7292 5.10417 24.7188 5.46875C24.7188 5.82292 24.7188 6.19271 24.7188 6.57812C24.7188 6.95312 24.7135 7.31771 24.7031 7.67188C24.7031 8.01562 24.7031 8.29688 24.7031 8.51562C24.7031 10.4635 24.7656 12.4427 24.8906 14.4531C25.026 16.4635 25.224 18.4167 25.4844 20.3125C25.7448 20.3542 26.0365 20.3906 26.3594 20.4219C26.6927 20.4531 27.0312 20.4792 27.375 20.5C27.7188 20.5104 28.0573 20.5208 28.3906 20.5312C28.724 20.5417 29.0208 20.5469 29.2812 20.5469C29.5729 20.5469 29.8958 20.5417 30.25 20.5312C30.6042 20.5208 30.9635 20.5104 31.3281 20.5C31.6927 20.4792 32.0521 20.4531 32.4062 20.4219C32.7708 20.3906 33.1042 20.3542 33.4062 20.3125ZM41.0312 12.7031C41.0312 14.4115 40.7448 16 40.1719 17.4688C39.599 18.9375 38.7865 20.2135 37.7344 21.2969C36.6823 22.3698 35.4167 23.2188 33.9375 23.8438C32.4688 24.4583 30.8333 24.7656 29.0312 24.7656C28.25 24.7656 27.4375 24.6719 26.5938 24.4844C25.75 24.3073 24.9219 24.0156 24.1094 23.6094C23.2969 23.1927 22.5208 22.6562 21.7812 22C21.0521 21.3438 20.4115 20.5417 19.8594 19.5938C19.3073 18.6458 18.8646 17.5417 18.5312 16.2812C18.2083 15.0208 18.0469 13.5833 18.0469 11.9688C18.0469 10.3854 18.2292 9 18.5938 7.8125C18.9688 6.625 19.4583 5.60938 20.0625 4.76562C20.6667 3.91146 21.3594 3.20833 22.1406 2.65625C22.9323 2.10417 23.7448 1.66667 24.5781 1.34375C25.4115 1.02083 26.2344 0.796875 27.0469 0.671875C27.8594 0.546875 28.6042 0.484375 29.2812 0.484375C30.3333 0.484375 31.349 0.583333 32.3281 0.78125C33.3177 0.96875 34.2448 1.27083 35.1094 1.6875C35.974 2.09375 36.7656 2.61979 37.4844 3.26562C38.2031 3.91146 38.8229 4.6875 39.3438 5.59375C39.8646 6.5 40.2708 7.54167 40.5625 8.71875C40.8646 9.89583 41.0208 11.224 41.0312 12.7031ZM67.2188 12.3906C67.1667 13.9323 66.9531 15.2917 66.5781 16.4688C66.2031 17.6458 65.724 18.6667 65.1406 19.5312C64.5677 20.3958 63.9115 21.1302 63.1719 21.7344C62.4427 22.3281 61.6927 22.8177 60.9219 23.2031C60.151 23.5885 59.3958 23.8854 58.6562 24.0938C57.9167 24.3125 57.2448 24.4688 56.6406 24.5625C56.0365 24.6667 55.5312 24.724 55.125 24.7344C54.7188 24.7552 54.474 24.7656 54.3906 24.7656C52.9323 24.7656 51.6354 24.625 50.5 24.3438C49.375 24.0625 48.3854 23.6667 47.5312 23.1562C46.6771 22.6458 45.9531 22.0365 45.3594 21.3281C44.776 20.6094 44.2969 19.8177 43.9219 18.9531C43.5573 18.0781 43.2917 17.1406 43.125 16.1406C42.9688 15.1406 42.8906 14.1042 42.8906 13.0312C42.8906 11.2396 43.1615 9.60938 43.7031 8.14062C44.2448 6.66146 45.0365 5.38542 46.0781 4.3125C47.1302 3.22917 48.4219 2.36979 49.9531 1.73438C51.4844 1.09896 53.2396 0.723958 55.2188 0.609375C56.1562 0.609375 57.0729 0.677083 57.9688 0.8125C58.875 0.9375 59.7292 1.15104 60.5312 1.45312C61.3438 1.74479 62.099 2.125 62.7969 2.59375C63.4948 3.0625 64.1146 3.63542 64.6562 4.3125C65.1979 4.97917 65.651 5.76562 66.0156 6.67188C66.3802 7.56771 66.6302 8.58854 66.7656 9.73438C66.1198 9.75521 65.5 9.79167 64.9062 9.84375C64.3229 9.88542 63.7448 9.94271 63.1719 10.0156C62.599 10.0781 62.0156 10.151 61.4219 10.2344C60.8385 10.3177 60.2188 10.4062 59.5625 10.5C59.6458 10.1354 59.7031 9.72917 59.7344 9.28125C59.776 8.82292 59.7969 8.35417 59.7969 7.875C59.7969 7.3125 59.7708 6.75 59.7188 6.1875C59.6771 5.61458 59.6042 5.07812 59.5 4.57812C58.9583 4.49479 58.3281 4.4375 57.6094 4.40625C56.8906 4.375 56.1458 4.35938 55.375 4.35938C54.5104 4.35938 53.6667 4.375 52.8438 4.40625C52.0208 4.4375 51.2969 4.49479 50.6719 4.57812C50.3698 5.97396 50.1406 7.45833 49.9844 9.03125C49.8281 10.6042 49.75 12.2135 49.75 13.8594C49.75 15.0469 49.7865 16.224 49.8594 17.3906C49.9427 18.5573 50.0625 19.7031 50.2188 20.8281C50.5208 20.8594 50.8594 20.8854 51.2344 20.9062C51.6094 20.9167 52.0104 20.9219 52.4375 20.9219C53.0312 20.9219 53.6562 20.9062 54.3125 20.875C54.9688 20.8438 55.6146 20.8021 56.25 20.75C56.8958 20.6875 57.5208 20.6146 58.125 20.5312C58.7396 20.4375 59.2969 20.3333 59.7969 20.2188C59.8281 19.9271 59.8542 19.599 59.875 19.2344C59.9062 18.8698 59.9219 18.4948 59.9219 18.1094C59.9219 17.7552 59.9115 17.4115 59.8906 17.0781C59.8802 16.7344 59.849 16.4271 59.7969 16.1562C59.026 16.1667 58.2812 16.1927 57.5625 16.2344C57.2604 16.2552 56.9427 16.276 56.6094 16.2969C56.2865 16.3177 55.9688 16.3438 55.6562 16.375C55.3438 16.3958 55.0469 16.4219 54.7656 16.4531C54.4948 16.4844 54.25 16.5156 54.0312 16.5469C54.25 15.5469 54.3594 14.5104 54.3594 13.4375C54.3594 13.2604 54.3594 13.0885 54.3594 12.9219C54.3594 12.7448 54.349 12.5677 54.3281 12.3906C56.3073 12.5156 58.3229 12.5781 60.375 12.5781C61.4792 12.5781 62.5938 12.5625 63.7188 12.5312C64.8438 12.5 66.0104 12.4531 67.2188 12.3906ZM84 20.3125C84.0625 19.6875 84.1198 19 84.1719 18.25C84.224 17.5 84.2656 16.7344 84.2969 15.9531C84.3281 15.1719 84.349 14.4062 84.3594 13.6562C84.3802 12.8958 84.3906 12.2031 84.3906 11.5781C84.3906 10.3802 84.3594 9.13542 84.2969 7.84375C84.2344 6.54167 84.1354 5.29167 84 4.09375C83.8438 4.08333 83.6562 4.07292 83.4375 4.0625C83.2188 4.05208 82.9896 4.04688 82.75 4.04688C82.5208 4.03646 82.2969 4.03125 82.0781 4.03125C81.8594 4.03125 81.6719 4.03125 81.5156 4.03125C81.0469 4.03125 80.5469 4.04167 80.0156 4.0625C79.4948 4.08333 78.9635 4.11979 78.4219 4.17188C77.8802 4.21354 77.3438 4.27083 76.8125 4.34375C76.2917 4.40625 75.7969 4.48438 75.3281 4.57812C75.3281 4.80729 75.3229 5.10417 75.3125 5.46875C75.3125 5.82292 75.3125 6.19271 75.3125 6.57812C75.3125 6.95312 75.3073 7.31771 75.2969 7.67188C75.2969 8.01562 75.2969 8.29688 75.2969 8.51562C75.2969 10.4635 75.3594 12.4427 75.4844 14.4531C75.6198 16.4635 75.8177 18.4167 76.0781 20.3125C76.3385 20.3542 76.6302 20.3906 76.9531 20.4219C77.2865 20.4531 77.625 20.4792 77.9688 20.5C78.3125 20.5104 78.651 20.5208 78.9844 20.5312C79.3177 20.5417 79.6146 20.5469 79.875 20.5469C80.1667 20.5469 80.4896 20.5417 80.8438 20.5312C81.1979 20.5208 81.5573 20.5104 81.9219 20.5C82.2865 20.4792 82.6458 20.4531 83 20.4219C83.3646 20.3906 83.6979 20.3542 84 20.3125ZM91.625 12.7031C91.625 14.4115 91.3385 16 90.7656 17.4688C90.1927 18.9375 89.3802 20.2135 88.3281 21.2969C87.276 22.3698 86.0104 23.2188 84.5312 23.8438C83.0625 24.4583 81.4271 24.7656 79.625 24.7656C78.8438 24.7656 78.0312 24.6719 77.1875 24.4844C76.3438 24.3073 75.5156 24.0156 74.7031 23.6094C73.8906 23.1927 73.1146 22.6562 72.375 22C71.6458 21.3438 71.0052 20.5417 70.4531 19.5938C69.901 18.6458 69.4583 17.5417 69.125 16.2812C68.8021 15.0208 68.6406 13.5833 68.6406 11.9688C68.6406 10.3854 68.8229 9 69.1875 7.8125C69.5625 6.625 70.0521 5.60938 70.6562 4.76562C71.2604 3.91146 71.9531 3.20833 72.7344 2.65625C73.526 2.10417 74.3385 1.66667 75.1719 1.34375C76.0052 1.02083 76.8281 0.796875 77.6406 0.671875C78.4531 0.546875 79.1979 0.484375 79.875 0.484375C80.9271 0.484375 81.9427 0.583333 82.9219 0.78125C83.9115 0.96875 84.8385 1.27083 85.7031 1.6875C86.5677 2.09375 87.3594 2.61979 88.0781 3.26562C88.7969 3.91146 89.4167 4.6875 89.9375 5.59375C90.4583 6.5 90.8646 7.54167 91.1562 8.71875C91.4583 9.89583 91.6146 11.224 91.625 12.7031Z" fill="#F2D53F"/>
</svg>
