<svg width="21" height="9" viewBox="0 0 21 9" fill="none" xmlns="http://www.w3.org/2000/svg">
<path fill-rule="evenodd" clip-rule="evenodd" d="M2.33335 0.5C2.33335 0.223858 2.55721 0 2.83335 0H18.5C18.7762 0 19 0.223858 19 0.5C19 0.776142 18.7762 1 18.5 1H2.83335C2.55721 1 2.33335 0.776142 2.33335 0.5ZM0 4.5C0 4.22386 0.223858 4 0.500001 4H20.5C20.7761 4 21 4.22386 21 4.5C21 4.77614 20.7761 5 20.5 5H0.5C0.223858 5 0 4.77614 0 4.5ZM19 8.5C19 8.22386 18.7762 8 18.5 8H2.83335C2.55721 8 2.33335 8.22386 2.33335 8.5C2.33335 8.77614 2.55721 9 2.83335 9H18.5C18.7762 9 19 8.77614 19 8.5Z" fill="white"/>
</svg>
