<svg width="17" height="20" viewBox="0 0 17 20" fill="none" xmlns="http://www.w3.org/2000/svg">
<path fill-rule="evenodd" clip-rule="evenodd" d="M15.2635 19.917H1.0255C0.753734 19.9169 0.493122 19.8089 0.300861 19.6168C0.1086 19.4248 0.000397286 19.1643 0 18.8925V1.0265C0 0.4605 0.46 0 1.0255 0H15.264C15.744 0 16.148 0.331 16.2605 0.7765H16.2915L16.2935 1.0265V18.8925C16.2923 19.1648 16.1832 19.4255 15.9902 19.6176C15.7971 19.8096 15.5358 19.9173 15.2635 19.917ZM1.0255 0.5C0.7355 0.5 0.5 0.7365 0.5 1.0265V18.8925C0.5 19.1815 0.7355 19.417 1.0255 19.417H15.264C15.556 19.417 15.7935 19.1815 15.7935 18.8925L15.791 1.0265C15.791 0.7365 15.5545 0.5 15.2635 0.5H1.0255ZM6.97752 7.604H1.35352C1.28721 7.604 1.22362 7.57766 1.17674 7.53078C1.12985 7.4839 1.10352 7.42031 1.10352 7.354C1.10352 7.2877 1.12985 7.22411 1.17674 7.17723C1.22362 7.13034 1.28721 7.104 1.35352 7.104H6.97752C7.04382 7.104 7.10741 7.13034 7.15429 7.17723C7.20118 7.22411 7.22752 7.2877 7.22752 7.354C7.22752 7.42031 7.20118 7.4839 7.15429 7.53078C7.10741 7.57766 7.04382 7.604 6.97752 7.604ZM1.35352 8.90698H6.97752C7.04382 8.90698 7.10741 8.88064 7.15429 8.83376C7.20118 8.78687 7.22752 8.72329 7.22752 8.65698C7.22752 8.59068 7.20118 8.52709 7.15429 8.48021C7.10741 8.43332 7.04382 8.40698 6.97752 8.40698H1.35352C1.28721 8.40698 1.22362 8.43332 1.17674 8.48021C1.12985 8.52709 1.10352 8.59068 1.10352 8.65698C1.10352 8.72329 1.12985 8.78687 1.17674 8.83376C1.22362 8.88064 1.28721 8.90698 1.35352 8.90698ZM6.97752 11.511H1.35352C1.28721 11.511 1.22362 11.4846 1.17674 11.4378C1.12985 11.3909 1.10352 11.3273 1.10352 11.261C1.10352 11.1947 1.12985 11.1311 1.17674 11.0842C1.22362 11.0373 1.28721 11.011 1.35352 11.011H6.97752C7.04382 11.011 7.10741 11.0373 7.15429 11.0842C7.20118 11.1311 7.22752 11.1947 7.22752 11.261C7.22752 11.3273 7.20118 11.3909 7.15429 11.4378C7.10741 11.4846 7.04382 11.511 6.97752 11.511ZM1.35352 10.2085H6.97752C7.04382 10.2085 7.10741 10.1822 7.15429 10.1353C7.20118 10.0884 7.22752 10.0248 7.22752 9.9585C7.22752 9.89219 7.20118 9.8286 7.15429 9.78172C7.10741 9.73483 7.04382 9.7085 6.97752 9.7085H1.35352C1.28721 9.7085 1.22362 9.73483 1.17674 9.78172C1.12985 9.8286 1.10352 9.89219 1.10352 9.9585C1.10352 10.0248 1.12985 10.0884 1.17674 10.1353C1.22362 10.1822 1.28721 10.2085 1.35352 10.2085ZM6.97752 12.813H1.35352C1.28721 12.813 1.22362 12.7866 1.17674 12.7398C1.12985 12.6929 1.10352 12.6293 1.10352 12.563C1.10352 12.4967 1.12985 12.4331 1.17674 12.3862C1.22362 12.3393 1.28721 12.313 1.35352 12.313H6.97752C7.04382 12.313 7.10741 12.3393 7.15429 12.3862C7.20118 12.4331 7.22752 12.4967 7.22752 12.563C7.22752 12.6293 7.20118 12.6929 7.15429 12.7398C7.10741 12.7866 7.04382 12.813 6.97752 12.813ZM7.78748 9.958C7.78748 11.999 9.44748 13.659 11.4885 13.659C13.5295 13.659 15.1895 11.999 15.1895 9.958C15.1895 7.9175 13.5295 6.258 11.4885 6.258C9.44748 6.258 7.78748 7.9175 7.78748 9.958ZM9.22626 7.69607C9.82636 7.09615 10.6399 6.75879 11.4885 6.758C13.2535 6.758 14.6895 8.1935 14.6895 9.958C14.6895 11.723 13.2535 13.159 11.4885 13.159C9.72348 13.159 8.28748 11.723 8.28748 9.958C8.28853 9.10946 8.62615 8.29599 9.22626 7.69607ZM11.4905 12.969C10.1745 12.969 8.98798 12.092 8.60548 10.8365L9.08398 10.691C9.40298 11.738 10.392 12.469 11.49 12.469C12.0285 12.4714 12.5534 12.2995 12.9862 11.9791C13.419 11.6586 13.7366 11.2068 13.8915 10.691L14.37 10.8365C14.1842 11.455 13.8035 11.9968 13.2845 12.3812C12.7656 12.7655 12.1362 12.9717 11.4905 12.969ZM13.9245 10.208H14.249L13.8387 9.72316C13.8659 9.71322 13.8949 9.708 13.9245 9.708H13.9865C13.9377 9.21776 13.7475 8.76859 13.4572 8.40205L13.6455 8.2145C13.6912 8.16748 13.7166 8.10439 13.7162 8.03883C13.7158 7.97327 13.6897 7.91048 13.6435 7.86399C13.5972 7.8175 13.5346 7.79103 13.469 7.79028C13.4035 7.78954 13.3403 7.81457 13.293 7.86L13.1097 8.04265C12.7835 7.76613 12.386 7.57125 11.949 7.48988L11.49 6.9475L11.488 6.9475C9.82798 6.9475 8.47748 8.298 8.47748 9.958C8.47748 10.0243 8.50381 10.0879 8.5507 10.1348C8.59758 10.1817 8.66117 10.208 8.72748 10.208H9.07998C9.14628 10.208 9.20987 10.1817 9.25675 10.1348C9.30364 10.0879 9.32998 10.0243 9.32998 9.958C9.32998 9.89169 9.30364 9.8281 9.25675 9.78122C9.20987 9.73433 9.14628 9.708 9.07998 9.708H8.98948C9.03969 9.20289 9.24013 8.74137 9.5454 8.36892L9.66698 8.49049C9.71401 8.53726 9.77765 8.5635 9.84398 8.56349C9.89334 8.56339 9.94157 8.54867 9.98258 8.52119C10.0236 8.49371 10.0555 8.45471 10.0744 8.40909C10.0933 8.36348 10.0983 8.3133 10.0886 8.26487C10.079 8.21645 10.0553 8.17196 10.0205 8.137L9.89893 8.01545C10.2715 7.71021 10.7331 7.50983 11.2385 7.45978V7.5625C11.2385 7.6288 11.2648 7.69239 11.3117 7.73927C11.3586 7.78616 11.4222 7.8125 11.4885 7.8125C11.5548 7.8125 11.6184 7.78616 11.6653 7.73927C11.7121 7.69239 11.7385 7.6288 11.7385 7.5625V7.45988C11.8096 7.46695 11.8798 7.47699 11.949 7.48988L13.8387 9.72316C13.8048 9.73554 13.7737 9.75522 13.7477 9.78122C13.7008 9.8281 13.6745 9.89169 13.6745 9.958C13.6745 10.0243 13.7008 10.0879 13.7477 10.1348C13.7946 10.1817 13.8582 10.208 13.9245 10.208ZM10.8112 12.1481C10.9908 12.3279 11.2343 12.4291 11.4885 12.4295C11.7428 12.4292 11.9867 12.328 12.1665 12.1481C12.3463 11.9682 12.4473 11.7243 12.4475 11.47C12.4475 11.441 12.4475 11.363 11.8545 8.13799C11.8376 8.0527 11.7917 7.97591 11.7245 7.92075C11.6573 7.86559 11.573 7.83549 11.4861 7.83561C11.3991 7.83573 11.3149 7.86605 11.2479 7.92139C11.1808 7.97674 11.1351 8.05365 11.1185 8.139L10.5325 11.4145L10.5175 11.4185L10.5305 11.4705C10.5306 11.7246 10.6315 11.9683 10.8112 12.1481ZM11.4885 11.9295C11.236 11.9295 11.0305 11.7235 11.0305 11.47L11.488 8.91199C11.6985 10.0625 11.9355 11.374 11.9475 11.4705C11.9472 11.5921 11.8988 11.7087 11.8127 11.7948C11.7267 11.8808 11.6101 11.9292 11.4885 11.9295Z" fill="black"/>
</svg>
