<svg width="521" height="181" viewBox="0 0 521 181" fill="none" xmlns="http://www.w3.org/2000/svg">
<path d="M1 88.0759H520.5" stroke="#E0E0E0"/>
<path d="M1 117.434H520.5" stroke="#E0E0E0"/>
<path d="M1 146.793H520.5" stroke="#E0E0E0"/>
<path d="M1 176.152H520.5" stroke="#E0E0E0"/>
<path d="M1 176.844V181" stroke="#E0E0E0"/>
<path d="M52.95 176.844V181" stroke="#E0E0E0"/>
<path d="M104.9 176.844V181" stroke="#E0E0E0"/>
<path d="M156.85 176.844V181" stroke="#E0E0E0"/>
<path d="M208.8 176.844V181" stroke="#E0E0E0"/>
<path d="M260.75 176.844V181" stroke="#E0E0E0"/>
<path d="M312.7 176.844V181" stroke="#E0E0E0"/>
<path d="M364.65 176.844V181" stroke="#E0E0E0"/>
<path d="M416.6 176.844V181" stroke="#E0E0E0"/>
<path d="M468.55 176.844V181" stroke="#E0E0E0"/>
<path d="M520.5 176.844V181" stroke="#E0E0E0"/>
<path d="M1 176.152H520.5" stroke="black"/>
<path d="M1 176.152V46.9737C19.1825 46.9737 34.7675 14.6792 52.95 14.6792C71.1325 14.6792 86.7175 85.1399 104.9 85.1399C123.083 85.1399 138.668 38.1661 156.85 38.1661C175.033 38.1661 190.618 85.1399 208.8 85.1399C226.983 85.1399 242.567 49.9096 260.75 49.9096C278.933 49.9096 294.518 99.8193 312.7 99.8193C330.883 99.8193 346.467 55.7813 364.65 55.7813C382.832 55.7813 398.418 85.1399 416.6 85.1399C434.783 85.1399 450.367 38.1661 468.55 38.1661C486.732 38.1661 502.317 79.2682 520.5 79.2682C520.5 79.2682 520.5 79.2682 520.5 176.152H1Z" fill="#008FFB" fill-opacity="0.35"/>
<path d="M1 46.9737C19.1825 46.9737 34.7675 14.6792 52.95 14.6792C71.1325 14.6792 86.7175 85.1399 104.9 85.1399C123.083 85.1399 138.668 38.1661 156.85 38.1661C175.033 38.1661 190.618 85.1399 208.8 85.1399C226.983 85.1399 242.567 49.9096 260.75 49.9096C278.933 49.9096 294.518 99.8193 312.7 99.8193C330.883 99.8193 346.467 55.7813 364.65 55.7813C382.832 55.7813 398.418 85.1399 416.6 85.1399C434.783 85.1399 450.367 38.1661 468.55 38.1661C486.732 38.1661 502.317 79.2682 520.5 79.2682" stroke="#008FFB" stroke-width="5"/>
<path d="M1 55.0475C19.1825 55.0475 34.7675 24.2209 52.95 24.2209C71.1325 24.2209 86.7175 77.0665 104.9 77.0665C123.083 77.0665 138.668 41.8361 156.85 41.8361C175.033 41.8361 190.618 81.4703 208.8 81.4703C226.983 81.4703 242.567 57.2494 260.75 57.2494C278.933 57.2494 294.518 94.6817 312.7 94.6817C330.883 94.6817 346.467 61.6532 364.65 61.6532C382.832 61.6532 398.418 79.2684 416.6 79.2684C434.783 79.2684 450.367 41.8361 468.55 41.8361C486.732 41.8361 502.317 81.4703 520.5 81.4703" stroke="#00E396" stroke-width="5"/>
</svg>
