<svg width="596" height="268" viewBox="0 0 596 268" fill="none" xmlns="http://www.w3.org/2000/svg">
<path d="M1 195.15H595.641" stroke="#E0E0E0"/>
<path d="M1 260.2H595.641" stroke="#E0E0E0"/>
<path d="M1 261.2V267.2" stroke="#E0E0E0"/>
<path d="M92.4832 261.2V267.2" stroke="#E0E0E0"/>
<path d="M183.966 261.2V267.2" stroke="#E0E0E0"/>
<path d="M275.449 261.2V267.2" stroke="#E0E0E0"/>
<path d="M366.933 261.2V267.2" stroke="#E0E0E0"/>
<path d="M458.416 261.2V267.2" stroke="#E0E0E0"/>
<path d="M549.899 261.2V267.2" stroke="#E0E0E0"/>
<path d="M1 260.2H595.641" stroke="black"/>
<path d="M1 260.2V236.348C49.0287 236.348 90.1961 190.813 138.225 190.813C170.244 190.813 197.689 162.625 229.708 162.625C261.727 162.625 289.172 190.813 321.191 190.813C353.21 190.813 380.655 186.477 412.674 186.477C444.693 186.477 472.138 147.447 504.157 147.447C536.177 147.447 563.622 171.298 595.641 171.298C595.641 171.298 595.641 171.298 595.641 260.2H1Z" fill="url(#paint0_linear)"/>
<path d="M1 236.348C49.0287 236.348 90.1961 190.813 138.225 190.813C170.244 190.813 197.689 162.625 229.708 162.625C261.727 162.625 289.172 190.813 321.191 190.813C353.21 190.813 380.655 186.477 412.674 186.477C444.693 186.477 472.138 147.447 504.157 147.447C536.177 147.447 563.622 171.298 595.641 171.298" stroke="#00E396" stroke-width="4"/>
<path d="M1 260.2V192.982C49.0287 192.982 90.1961 173.467 138.225 173.467C170.244 173.467 197.689 199.487 229.708 199.487C261.727 199.487 289.172 149.615 321.191 149.615C353.21 149.615 380.655 169.13 412.674 169.13C444.693 169.13 472.138 23.8516 504.157 23.8516C536.177 23.8516 563.622 43.3666 595.641 43.3666C595.641 43.3666 595.641 43.3666 595.641 260.2H1Z" fill="url(#paint1_linear)"/>
<path d="M1 192.982C49.0287 192.982 90.1961 173.467 138.225 173.467C170.244 173.467 197.689 199.487 229.708 199.487C261.727 199.487 289.172 149.615 321.191 149.615C353.21 149.615 380.655 169.13 412.674 169.13C444.693 169.13 472.138 23.8516 504.157 23.8516C536.177 23.8516 563.622 43.3666 595.641 43.3666" stroke="#008FFB" stroke-width="4"/>
<defs>
<linearGradient id="paint0_linear" x1="1" y1="147.447" x2="1" y2="260.2" gradientUnits="userSpaceOnUse">
<stop stop-color="#00E396" stop-opacity="0.4225"/>
<stop offset="1" stop-color="#80F1CB" stop-opacity="0.25"/>
</linearGradient>
<linearGradient id="paint1_linear" x1="1" y1="23.8516" x2="1" y2="260.2" gradientUnits="userSpaceOnUse">
<stop stop-color="#008FFB" stop-opacity="0.4225"/>
<stop offset="1" stop-color="#80C7FD" stop-opacity="0.25"/>
</linearGradient>
</defs>
</svg>
